<?xml version="1.0" encoding="iso-8859-1"?>
<!-- Generator: Adobe Illustrator 16.0.0, SVG Export Plug-In . SVG Version: 6.00 Build 0)  -->
<!DOCTYPE svg PUBLIC "-//W3C//DTD SVG 1.1//EN" "http://www.w3.org/Graphics/SVG/1.1/DTD/svg11.dtd">
<svg version="1.1" xmlns="http://www.w3.org/2000/svg" xmlns:xlink="http://www.w3.org/1999/xlink" x="0px" y="0px" width="512px"
	 height="512px" viewBox="0 0 512 512" style="enable-background:new 0 0 512 512;" xml:space="preserve">
<g id="_x31_69_x2C__Planets_Astronomy_x2C__Galaxy_x2C__Planets">
	<g>
		<path style="fill:#BC995B;" d="M471.797,150.625L471.797,150.625L471.797,150.625c-0.265-1.094-0.541-2.182-0.829-3.266
			c-0.014-0.051-0.026-0.103-0.04-0.154c-0.267-0.998-0.543-1.991-0.83-2.98c-0.039-0.137-0.077-0.274-0.117-0.411
			c-0.262-0.895-0.533-1.785-0.811-2.672c-0.063-0.203-0.124-0.408-0.188-0.611c-0.333-1.048-0.676-2.093-1.031-3.131
			c-0.49-1.432-1.009-2.851-1.541-4.263c-0.104-0.275-0.208-0.55-0.313-0.824c-0.547-1.426-1.11-2.845-1.699-4.25
			c0,0-0.001-0.001-0.001-0.002l0,0c-12.022-28.678-32.689-52.829-58.755-69.191C382.561,44.38,355.26,36,326,36
			c-25.141,0-48.83,6.18-69.64,17.12c-12.555,6.589-24.057,14.905-34.196,24.638l0,0c-0.002,0.002-0.004,0.004-0.006,0.005
			c-1.091,1.048-2.163,2.117-3.222,3.197c-0.221,0.225-0.44,0.451-0.659,0.677c-1.043,1.077-2.076,2.164-3.087,3.272
			c-1.142,1.251-2.258,2.526-3.358,3.815c-0.039,0.045-0.076,0.092-0.114,0.137c-4.592,5.396-8.807,11.119-12.608,17.132l0,0
			c-0.001,0.002-0.002,0.003-0.003,0.005c-0.864,1.367-1.708,2.746-2.529,4.142c-0.026,0.043-0.053,0.086-0.079,0.13
			c-0.838,1.429-1.657,2.87-2.449,4.329c0,0.01,0,0.01,0,0.01c-0.745,1.372-1.458,2.762-2.156,4.161
			c-0.297,0.591-0.591,1.183-0.881,1.778c-0.278,0.577-0.547,1.16-0.818,1.741c-0.737,1.568-1.448,3.149-2.132,4.746
			c0,0,0,0.001-0.001,0.002l0,0c-1.211,2.829-2.362,5.689-3.402,8.603C179.05,151.38,176,168.33,176,186c0,82.84,67.16,150,150,150
			c81.471,0,147.779-64.96,149.939-145.91c0.041-1.36,0.061-2.72,0.061-4.09C476,173.814,474.54,161.969,471.797,150.625z"/>
		<path style="fill:#EAC16E;" d="M467.95,137.4c-11.22-32.77-33.46-60.42-62.31-78.53v0.01C384.83,69.81,361.141,76,336,76
			c-29.26,0-56.561-8.39-79.64-22.88c-15.53,8.15-29.45,18.94-41.17,31.79c-8.19,8.97-15.3,18.93-21.14,29.69c0,0.01,0,0.01,0,0.01
			c-3.65,6.72-6.79,13.75-9.39,21.03l0.15,0.05C184.81,218.53,253.16,286,336,286c63.77,0,118.24-39.8,139.939-95.91
			c0.041-1.36,0.061-2.72,0.061-4.09C476,168.99,473.17,152.64,467.95,137.4z"/>
		<path style="fill:#1790BA;" d="M121,306c-41.28,0-75.7,29.44-83.39,68.47C36.55,379.82,36,385.34,36,391
			c0,42,30.47,76.89,70.5,83.76c4.71,0.82,9.56,1.24,14.5,1.24c29.3,0,55.14-14.83,70.41-37.39C200.62,425.03,206,408.64,206,391
			C206,344.06,167.94,306,121,306z"/>
		<path style="fill:#BC995B;" d="M475.939,190.09C473.779,271.04,407.471,336,326,336c-82.84,0-150-67.16-150-150
			c0-17.67,3.05-34.62,8.66-50.36l0.15,0.05C184.81,218.53,253.16,286,336,286C399.77,286,454.24,246.2,475.939,190.09z"/>
		<circle style="fill:#F24125;" cx="386" cy="416" r="40"/>
		<path style="fill:#BC995B;" d="M405.641,58.87v0.01C384.83,69.81,361.141,76,336,76c-29.26,0-56.561-8.39-79.64-22.88
			C277.17,42.18,300.859,36,326,36C355.26,36,382.561,44.38,405.641,58.87z"/>
		<path style="fill:#1790BA;" d="M206,391c0,17.64-5.38,34.03-14.59,47.61l-0.16-0.11l-43.61-25.51
			c-6.91-4.15-10.3-12.34-8.35-20.16l2.59-10.37c0.37-1.49,0.55-2.99,0.55-4.46c0-7.71-4.91-14.83-12.53-17.37
			c-8.13-2.71-13.29-10.68-12.44-19.21L121,306C167.94,306,206,344.06,206,391z"/>
		<path style="fill:#1AA5E2;" d="M191.25,438.5l0.16,0.11C176.14,461.17,150.3,476,121,476c-4.94,0-9.79-0.42-14.5-1.24v-0.01
			l-8.56-39.06c-0.62-3.061-1.92-5.891-3.76-8.301c-1.84-2.42-4.23-4.409-7.02-5.81C80.32,418.16,76,411.17,76,403.52v-2.96
			c0-8.699-5.56-16.409-13.81-19.159l-24.44-6.9l-0.14-0.03C45.3,335.44,79.72,306,121,306l-3.54,35.42
			c-0.85,8.53,4.31,16.5,12.44,19.21c7.62,2.54,12.53,9.66,12.53,17.37c0,1.47-0.18,2.97-0.55,4.46l-2.59,10.37
			c-1.95,7.82,1.44,16.01,8.35,20.16L191.25,438.5z"/>
		<path style="fill:#1790BA;" d="M106.5,474.75v0.01C66.47,467.89,36,433,36,391c0-5.66,0.55-11.18,1.61-16.53l0.14,0.03l24.44,6.9
			C70.44,384.15,76,391.86,76,400.56v2.96c0,7.65,4.32,14.641,11.16,18.061c2.79,1.4,5.18,3.39,7.02,5.81
			c1.84,2.41,3.14,5.24,3.76,8.301L106.5,474.75z"/>
		<path style="fill:#F24125;" d="M76,136c11.05,0,20,8.95,20,20s-8.95,20-20,20s-20-8.95-20-20S64.95,136,76,136z"/>
		<g>
			<g>
				<path style="fill:#3F4751;" d="M456,326c-5.52,0-10,4.48-10,10s4.48,10,10,10s10-4.48,10-10S461.52,326,456,326z"/>
				<path style="fill:#3F4751;" d="M286,406c-5.52,0-10,4.48-10,10s4.48,10,10,10s10-4.48,10-10S291.52,406,286,406z"/>
				<path style="fill:#3F4751;" d="M146,46c-5.52,0-10,4.48-10,10s4.48,10,10,10s10-4.48,10-10S151.52,46,146,46z"/>
				<path style="fill:#3F4751;" d="M126,176c-5.52,0-10,4.48-10,10s4.48,10,10,10s10-4.48,10-10S131.52,176,126,176z"/>
				<path style="fill:#3F4751;" d="M66,236c-5.52,0-10,4.48-10,10s4.48,10,10,10s10-4.48,10-10S71.52,236,66,236z"/>
			</g>
		</g>
		<g>
			<path style="fill:#BC995B;" d="M286,196c-5.52,0-10,4.48-10,10s4.48,10,10,10s10-4.48,10-10S291.52,196,286,196z"/>
			<path style="fill:#BC995B;" d="M261.343,184.457c-27.001-17.065-47.54-43.021-57.832-73.086
				c-0.806-2.356-2.409-4.209-4.401-5.377c-1.775,2.809-3.469,5.675-5.06,8.606c0,0.01,0,0.01,0,0.01
				c-2.189,4.031-4.172,8.186-5.988,12.428c12.591,30.446,34.539,56.593,62.595,74.326c1.659,1.048,3.506,1.548,5.333,1.548
				c3.316,0,6.56-1.648,8.462-4.659C267.404,193.584,266.012,187.408,261.343,184.457z"/>
			<path style="fill:#BC995B;" d="M262.66,138.233C285.155,149.856,310.516,156,336,156c25.99,0,51.812-6.382,74.671-18.458
				c4.884-2.58,6.751-8.629,4.171-13.513c-2.578-4.883-8.628-6.749-13.513-4.171C381.338,130.418,358.747,136,336,136
				c-44.287,0-86.441-21.317-112.761-57.023c-0.328-0.445-0.692-0.844-1.075-1.218c-2.402,2.306-4.729,4.69-6.974,7.152
				c-2.301,2.52-4.506,5.126-6.632,7.798C222.943,111.631,241.597,127.349,262.66,138.233z"/>
			<path style="fill:#BC995B;" d="M467.95,137.4c-1.083-3.163-2.271-6.276-3.555-9.339c-2.159,0.821-4.048,2.381-5.235,4.571
				C434.613,177.887,387.422,206,336,206c-5.523,0-10,4.477-10,10s4.477,10,10,10c55.486,0,106.649-28.649,135.797-75.375
				C470.711,146.136,469.431,141.722,467.95,137.4z"/>
		</g>
	</g>
</g>
<g id="Layer_1">
</g>
</svg>
